<svg width="270" height="270" xmlns="http://www.w3.org/2000/svg" version="1.1" preserveAspectRatio="none" ref="svg_canvas">
 <defs>
  <linearGradient y2="0.499534" x2="0.994751" y1="0.499534" x1="0.009607" id="svg_3">
   <stop stop-color="#950000" offset="0"/>
   <stop stop-color="#980000" offset="0.146"/>
   <stop stop-color="#A20000" offset="0.3084"/>
   <stop stop-color="#B20004" offset="0.4787"/>
   <stop stop-color="#C7000B" offset="0.6545"/>
   <stop stop-color="#E00011" offset="0.8329"/>
   <stop stop-color="#E60012" offset="0.8786"/>
  </linearGradient>
  <linearGradient y2="0.483279" x2="0.984584" y1="0.556967" x1="0.012391" id="svg_2">
   <stop stop-color="#950000" offset="0"/>
   <stop stop-color="#980000" offset="0.146"/>
   <stop stop-color="#A20000" offset="0.3084"/>
   <stop stop-color="#B20004" offset="0.4787"/>
   <stop stop-color="#C7000B" offset="0.6545"/>
   <stop stop-color="#E00011" offset="0.8329"/>
   <stop stop-color="#E60012" offset="0.8786"/>
  </linearGradient>
 </defs>
 <g>
  <title>background</title>
  <rect fill="none" id="canvas_background" height="272" width="272" y="-1" x="-1"/>
 </g>
 <g>
  <title>Layer 1</title>
  <g display="inline" transform="translate(179.8196563720703,165) scale(1) " key="shape_3zm3NWD4wc" ref="shape_3zm3NWD4wc" id="shape_3zm3NWD4wc">
   <g id="svg_7" display="inline">
    <rect id="svg_8" y="-164" x="-179" height="256.794025" width="194.360685" fill="rgba(0,0,0,0)"/>
    <svg data-parent="shape_3zm3NWD4wc" preserveAspectRatio="none" xml:space="preserve" viewBox="47.32156753540039 42.49999237060547 100.87844848632812 137" height="236.794025" width="174.360685" y="-154" x="-169" id="svg_1" version="1.1" xmlns:xlink="http://www.w3.org/1999/xlink" xmlns="http://www.w3.org/2000/svg">
     <style type="text/css">.st0{fill:url(#SVGID_1__rH8ZBkByvn);}
	.st1{fill:url(#SVGID_2__4rV8R1khd7);}</style>
     <g id="svg_9">
      <path id="svg_10" fill="url(#svg_3)" d="m99.6,179.5c-13.4,-0.7 -26.7,-6.9 -36.1,-17.1c-9.3,-10.3 -14.7,-23.8 -15.9,-37.7c-1.3,-13.9 2,-28.1 8.9,-40.3c3.5,-6.1 7.9,-11.6 13.1,-16.4c5.2,-4.7 11,-8.7 17.3,-11.8l-1,0.7l9.6,-9.4l5.1,-5l0.8,7.1c0.1,0.6 0.2,1.5 0.4,2.3c0.2,0.8 0.4,1.6 0.7,2.3c0.6,1.5 1.3,2.9 2.2,4l-1.9,-1.2c2,0.5 4.1,1 6.1,1.7c2,0.7 4,1.5 6,2.6c2,1 3.9,2.4 5.6,4.1c0.9,0.9 1.6,1.9 2.3,3c0.3,0.6 0.6,1.2 0.8,1.9c0.1,0.3 0.2,0.7 0.3,1.1c0.1,0.4 0.2,0.7 0.2,1.4l-1.3,-2.6c2.4,1.8 4.9,3.6 7.4,5.3l7.5,5.2l-0.9,-0.4c2.2,0.7 4.4,1.8 6.1,3.5c1.7,1.6 3,3.6 3.8,5.7c0.4,1 0.7,2.1 1,3.1c0.1,0.5 0.2,1.1 0.3,1.6l0.1,0.8c0,0.4 0.1,0.7 0.1,1.1c0,1.4 -0.5,2.9 -1.3,4.1c-0.4,0.6 -0.9,1.1 -1.4,1.6c-0.2,0.2 -0.6,0.5 -0.8,0.6l-0.6,0.4l-4.8,3.2c-0.4,0.3 -0.7,0.5 -1.4,0.9c-0.7,0.3 -1.4,0.6 -2.1,0.7c-1.5,0.2 -2.9,-0.1 -4.2,-0.9c-0.6,-0.3 -1.2,-0.9 -1.6,-1.3c-0.3,-0.3 -0.6,-0.6 -0.9,-0.8c-0.6,-0.5 -1.3,-1 -2,-1.4c-1.4,-0.9 -3.1,-1.5 -4.8,-2.1c-3.4,-1 -7,-1.5 -10.6,-1.5c-1.8,0 -3.7,0.1 -5.5,0.4c-1.8,0.3 -4.2,0.5 -6.1,0c-4.1,-1 -7.3,-3.8 -9.7,-6.8c-2.4,-3.1 -4.2,-6.5 -5.6,-10.1l0.4,-0.1c1.5,3.4 3.5,6.7 5.9,9.6c2.4,2.8 5.5,5.3 9.2,6.1c1.8,0.4 3.7,0.2 5.6,-0.2c1.9,-0.4 3.8,-0.6 5.7,-0.7c3.8,-0.2 7.7,0.1 11.3,1.2c1.8,0.5 3.6,1.2 5.3,2.2c0.8,0.5 1.6,1 2.4,1.6c0.8,0.6 1.4,1.4 2.1,1.8c0.8,0.4 1.7,0.6 2.6,0.5c0.9,-0.1 1.6,-0.6 2.4,-1.2l4.7,-3.2c1.6,-0.9 2.7,-2.6 2.7,-4.4c-0.1,-1.8 -0.6,-3.7 -1.4,-5.4c-0.7,-1.7 -1.8,-3.3 -3.2,-4.5c-1.4,-1.2 -3,-2.1 -4.8,-2.6l0,0l0,0c-5.1,-3.4 -10.1,-6.9 -15.1,-10.5l-0.1,-0.1l0,-0.2c-0.2,-1.8 -1.3,-3.6 -2.6,-4.9c-1.4,-1.4 -3,-2.5 -4.7,-3.4c-1.7,-0.9 -3.6,-1.7 -5.4,-2.3c-1.9,-0.6 -3.8,-1.1 -5.7,-1.5l-0.1,0l-0.1,-0.1c-1.2,-1.5 -2.2,-3.2 -2.8,-5c-0.7,-1.8 -1.2,-3.6 -1.4,-5.6l0.6,0.2l-9.5,9.5l0,0l-0.1,0c-5.9,3 -11.5,6.7 -16.5,11.1c-4.9,4.5 -9.2,9.7 -12.5,15.4c-6.8,11.5 -9.9,25 -9,38.3c0.8,13.3 5.7,26.4 14.4,36.5c4.3,5 9.6,9.3 15.5,12.3c5.9,3.1 12.4,5 19,5.8l0,0.2z"/>
      <polygon id="svg_11" fill="url(#svg_2)" points="102.8,69.2 109.7,68.9 113.6,76 109.1,72.5 106,72.7  "/>
     </g>
    </svg>
   </g>
  </g>
  <g display="inline" style="cursor:move;display:inline;opacity:1;" transform="translate(268.9999694824219,385.6997375488281) scale(1) " key="shape_TKVG4KW7Pk" ref="shape_TKVG4KW7Pk" id="shape_TKVG4KW7Pk">
   <g id="svg_5" display="inline" style="display:inline">
    <svg y="-154" x="-169" id="svg_12" data-parent="shape_TKVG4KW7Pk" preserveAspectRatio="none" viewBox="0 0 47.31396484375 27.67529296875" height="27.675293" width="52.313965" style="top:0; left: 0" overflow="hidden" version="1.1" xmlns:xlink="http://www.w3.org/1999/xlink" xmlns="http://www.w3.org/2000/svg">
     <rect id="svg_13" height="27.675293" width="52.313965" fill="rgba(0,0,0,0)"/>
     <rect id="svg_14" opacity="0"/>
     <g id="svg_15" data-width="42.313965">
      <path id="svg_16" data-glyph-w="19.820801" d="m11.28,19.010742l-2.03,0l-3.99,-15.03l2.04,0l2.28,9.85q0.37,1.55 0.64,3.08l0,0q0.57,-2.41 0.68,-2.78l0,0l2.86,-10.15l2.4,0l2.15,7.61q0.81,2.83 1.17,5.32l0,0q0.29,-1.43 0.75,-3.27l0,0l2.36,-9.66l1.99,0l-4.12,15.03l-1.91,0l-3.17,-11.45q-0.4,-1.44 -0.47,-1.77l0,0q-0.24,1.04 -0.45,1.77l0,0l-3.18,11.45z" fill="#ffffff"/>
      <path id="svg_17" data-glyph-w="17.493164" d="m28.300801,19.010742l-1.92,0l0,-15.03l2.99,0l3.56,10.64q0.49,1.49 0.72,2.23l0,0q0.25,-0.82 0.8,-2.41l0,0l3.6,-10.46l2.67,0l0,15.03l-1.91,0l0,-12.58l-4.37,12.58l-1.8,0l-4.34,-12.8l0,12.8z" fill="#ffffff"/>
     </g>
    </svg>
   </g>
  </g>
  <g display="inline" transform="translate(217,279.3907165527344) scale(1) " key="shape_pWJOz6PAYo" ref="shape_pWJOz6PAYo" id="shape_pWJOz6PAYo">
   <g id="svg_6" display="inline">
    <svg y="-154" x="-169" id="svg_18" data-parent="shape_pWJOz6PAYo" preserveAspectRatio="none" viewBox="0 0 218 122.28125" height="122.28125" width="223" overflow="hidden" version="1.1" xmlns:xlink="http://www.w3.org/1999/xlink" xmlns="http://www.w3.org/2000/svg">
     <rect id="svg_19" height="122.28125" width="223" fill="rgba(0,0,0,0)"/>
     <rect id="svg_20" opacity="0"/>
     <g id="svg_21" data-width="213">
      <path id="svg_22" data-glyph-w="104" d="m104.63,93.235l0,-7.21l-12.39,0l0,-42.96l-44.18,0l4.47,-25.29l49.26,0l0,-7.31l-89.58,0l0,7.31l27.73,0l-4.47,25.29l-21.53,0l0,7.31l20.31,0l-6.2,35.65l-18.58,0l0,7.21l95.16,0zm-57.79,-42.86l33.01,0l0,35.65l-39.2,0l6.19,-35.65z" fill="#ffffff"/>
      <path id="svg_23" data-glyph-w="104" d="m126.27,97.395l0,-28.33q-4.68,7.61 -10.47,14.01l0,0l-3.96,-5.68q7.52,-16.56 12.9,-35.75l0,0l-11.27,0l0,-7.22l12.8,0l0,-15.23q-6,0.51 -11.48,0.61l0,0l-1.32,-7.52q16.45,-1.82 33.41,-7l0,0l3.25,10.46q-4.57,0.91 -11.47,1.93l0,0l0,16.75l12.29,0l0,7.22l-12.29,0l0,5.68l2.43,-1.22q8.54,8.13 13.71,18.49l0,0l-10.56,6.7q-2.44,-6.09 -5.58,-13.51l0,0l0,39.61l-12.39,0zm72.11,-45.5l11.78,-5.99q-4.68,-13.2 -17.47,-28.03l0,0l-6.1,3.15q6.91,15.44 11.79,30.87l0,0zm-26.92,-45.5l0,58.71l12.39,0l0,-58.71l-12.39,0zm-15.03,10.67l12.29,2.74q-2.54,20.41 -13.41,36.87l0,0l-6.29,-2.75q4.46,-17.46 7.41,-36.86l0,0zm39.61,34.22l10.66,7.11q-3.96,6.91 -13,15.34l0,0q-17.87,16.96 -42.75,24.68l0,0l-3.25,-6.2q7.1,-2.94 16.75,-9.54l0,0q19.2,-13.21 31.59,-31.39l0,0z" fill="#ffffff"/>
     </g>
    </svg>
   </g>
  </g>
 </g>
</svg>